<?xml version="1.0" encoding="utf-8"?>
<!-- Generator: Adobe Illustrator 25.3.1, SVG Export Plug-In . SVG Version: 6.00 Build 0)  -->
<svg version="1.1" id="Layer_1" xmlns="http://www.w3.org/2000/svg" xmlns:xlink="http://www.w3.org/1999/xlink" x="0px" y="0px"
	 viewBox="0 0 200 200" style="enable-background:new 0 0 200 200;" xml:space="preserve">
<style type="text/css">
	.st0{fill:#00AAAA;stroke:#00AAAA;stroke-width:2;stroke-miterlimit:10;}
</style>
<g>
	<path class="st0" d="M104.3,154H39.6c-5.8,0-10.6-4.7-10.6-10.6V86.7c0-5.8,4.7-10.5,10.6-10.5h78.5c5.8,0,10.5,4.7,10.5,10.5v21.5
		c0,1.3,1.1,2.4,2.4,2.4s2.4-1.1,2.4-2.4V86.7c0-8.4-6.9-15.3-15.3-15.3h-6.3V55.3c0-18.1-14.8-32.9-32.9-32.9S45.9,37.2,45.9,55.3
		v16.1h-6.3c-8.4,0-15.3,6.9-15.3,15.3v56.8c0,8.4,6.9,15.3,15.3,15.3h64.7c1.3,0,2.4-1.1,2.4-2.4S105.6,154,104.3,154z M50.6,55.3
		c0-15.5,12.6-28.2,28.2-28.2c15.5,0,28.2,12.6,28.2,28.2v16.1H50.6V55.3z"/>
	<path class="st0" d="M173.1,152c-1.2-0.3-2.4,0.4-2.7,1.6c-2.8,11.5-13.1,19.6-24.9,19.6c-9.6,0-18.4-5.5-22.8-13.9h9
		c1.2,0,2.2-1,2.2-2.2s-1-2.2-2.2-2.2h-14.1c-1.2,0-2.2,1-2.2,2.2v14.1c0,1.2,1,2.2,2.2,2.2s2.2-1,2.2-2.2v-8.1
		c5.4,8.8,15.1,14.5,25.7,14.5c13.9,0,25.9-9.4,29.2-22.9C175,153.5,174.3,152.3,173.1,152z"/>
	<path class="st0" d="M173.5,121.3c-1.2,0-2.2,1-2.2,2.2v8.6c-5.4-9-15.1-14.6-25.8-14.6c-13.9,0-25.9,9.4-29.2,22.9
		c-0.3,1.2,0.4,2.4,1.6,2.7c0.2,0,0.3,0.1,0.5,0.1c1,0,1.9-0.7,2.1-1.7c2.8-11.5,13.1-19.6,25-19.6c9.6,0,18.1,5.2,22.6,13.5h-8.6
		c-1.2,0-2.2,1-2.2,2.2c0,1.2,1,2.2,2.2,2.2h14.1c1.2,0,2.2-1,2.2-2.2v-14.1C175.7,122.3,174.7,121.3,173.5,121.3z"/>
</g>
</svg>
