<?xml version="1.0" encoding="utf-8"?>
<!-- Generator: Adobe Illustrator 25.3.1, SVG Export Plug-In . SVG Version: 6.00 Build 0)  -->
<svg version="1.1" id="Layer_1" xmlns="http://www.w3.org/2000/svg" xmlns:xlink="http://www.w3.org/1999/xlink" x="0px" y="0px"
	 viewBox="0 0 200 200" style="enable-background:new 0 0 200 200;" xml:space="preserve">
<style type="text/css">
	.st0{fill:#00AAAA;}
</style>
<g>
	<path class="st0" d="M178.1,99.3c9.8-7.5,16.1-24.2,16.1-34.4c0-14.5-11.8-26.3-26.3-26.3s-26.3,11.8-26.3,26.3
		c0,10.5,6.7,28,17.1,35.1c-15.9,4.3-28.2,17.2-31.7,33.5H93h-1.8H73c-3.5-16.2-15.6-28.7-31-33.2c10.6-6.9,17.5-24.7,17.5-35.4
		c0-14.5-11.8-26.3-26.3-26.3S6.8,50.4,6.8,64.9C6.8,75,13,91.5,22.6,99.1C12,101.6,4,111.1,4,122.6v55.1c0,1.3,1.1,2.4,2.4,2.4
		h65.4c1.3,0,2.4-1.1,2.4-2.4v-14.8h17.1H93h33v14.8c0,1.3,1.1,2.4,2.4,2.4h65.4c1.3,0,2.4-1.1,2.4-2.4v-55.1
		C196,111.4,188.4,102.1,178.1,99.3z M146.3,64.9c0-11.9,9.7-21.6,21.6-21.6s21.6,9.7,21.6,21.6c0,12.6-10.5,33.5-21.6,33.5
		S146.3,77.5,146.3,64.9z M11.6,64.9c0-11.9,9.7-21.6,21.6-21.6S54.8,53,54.8,64.9c0,12.6-10.5,33.5-21.6,33.5S11.6,77.5,11.6,64.9z
		 M91.2,158.1H52l-25.1-38.3c-0.7-1.1-2.2-1.4-3.3-0.7c-1.1,0.7-1.4,2.2-0.7,3.3l25.8,39.4c0.4,0.7,1.2,1.1,2,1.1h18.6v12.4H8.7
		v-52.7c0-10.7,8.7-19.5,19.5-19.5h1.6c19.3,0,35.7,13.8,39,32.7c0,0.1,0.1,0.1,0.1,0.2c0.1,1.2,1.1,2.1,2.3,2.1h20H93
		c5.5,0,10,4.5,10,10s-4.5,10-10,10H91.2z M103.7,158.1c2.4-2.6,4-6.1,4-10s-1.5-7.4-4-10h22.2v4.6v15.4H103.7z M191.3,175.3h-30.5
		V125c0-1.3-1.1-2.4-2.4-2.4s-2.4,1.1-2.4,2.4v50.2h-25.4v-14.8v-17.8c0-21.8,17.8-39.6,39.6-39.6h1.6c10.7,0,19.5,8.7,19.5,19.5
		V175.3z"/>
	<path class="st0" d="M92.2,70.2c0.6,0,1.2-0.2,1.7-0.7l26.9-26.9c0.9-0.9,0.9-2.4,0-3.3c-0.9-0.9-2.4-0.9-3.3,0L92.2,64.4l-8.6-8.6
		c-0.9-0.9-2.4-0.9-3.3,0c-0.9,0.9-0.9,2.4,0,3.3l10.3,10.3C91,69.9,91.6,70.2,92.2,70.2z"/>
	<path class="st0" d="M100.5,84.6c17.8,0,32.3-14.5,32.3-32.3S118.3,20,100.5,20S68.2,34.5,68.2,52.3S82.7,84.6,100.5,84.6z
		 M100.5,24.7c15.2,0,27.5,12.4,27.5,27.5s-12.4,27.5-27.5,27.5S73,67.5,73,52.3S85.3,24.7,100.5,24.7z"/>
</g>
</svg>
