<?xml version="1.0" encoding="utf-8"?>
<!-- Generator: Adobe Illustrator 25.3.1, SVG Export Plug-In . SVG Version: 6.00 Build 0)  -->
<svg version="1.1" id="Layer_1" xmlns="http://www.w3.org/2000/svg" xmlns:xlink="http://www.w3.org/1999/xlink" x="0px" y="0px"
	 viewBox="0 0 200 200" style="enable-background:new 0 0 200 200;" xml:space="preserve">
<style type="text/css">
	.st0{fill:#00AAAA;}
</style>
<g>
	<path class="st0" d="M84.8,91.1c0,8.1,6.5,20.6,15.1,20.6s15.1-12.5,15.1-20.6c0-8.3-6.8-15-15.1-15S84.8,82.8,84.8,91.1z
		 M110.2,91.1c0,6-5,15.9-10.3,15.9S89.6,97,89.6,91.1c0-5.7,4.6-10.3,10.3-10.3S110.2,85.4,110.2,91.1z"/>
	<path class="st0" d="M149.8,120.2c7.7,0,13.6-11.2,13.6-18.5c0-7.5-6.1-13.6-13.6-13.6s-13.6,6.1-13.6,13.6
		C136.2,109,142,120.2,149.8,120.2z M149.8,92.9c4.9,0,8.8,4,8.8,8.8c0,5.7-4.6,13.7-8.8,13.7s-8.8-8.1-8.8-13.7
		C140.9,96.9,144.9,92.9,149.8,92.9z"/>
	<path class="st0" d="M159.7,120.6h-20c-3.8,0-7.5,1.3-10.5,3.5c-3.3-6.7-10.1-11.3-18-11.3H88.6c-7.9,0-14.6,4.6-18,11.2
		c-3-2.1-6.6-3.4-10.4-3.4h-20c-10,0-18.1,8.1-18.1,18.1v37c0,4.6,3.7,8.3,8.3,8.3h7c0.6,0,1.2-0.3,1.6-0.7c0.4,0.4,1,0.7,1.6,0.7
		h28.2c1.3,0,2.4-1.1,2.4-2.4c0-0.1-0.1-0.2-0.1-0.3c1.6,1.6,3.9,2.6,6.4,2.6h7.9c0.8,0,1.4-0.5,1.8-1.1c0.4,0.6,1,1.1,1.8,1.1h21.9
		c0.7,0,1.3-0.4,1.8-0.9c0.4,0.5,1,0.9,1.8,0.9h7.9c2.1,0,4-0.8,5.5-2c0.2,1.1,1.1,2,2.2,2h29.4c0.6,0,1.1-0.3,1.6-0.6
		c0.4,0.4,1,0.6,1.6,0.6h7c4.6,0,8.3-3.7,8.3-8.3v-37C177.8,128.7,169.7,120.6,159.7,120.6z M40.6,179.3c-0.3,0-0.6,0.2-0.9,0.4
		v-38.8c0-1.3-1.1-2.4-2.4-2.4s-2.4,1.1-2.4,2.4v38.5h-4.6c-1.9,0-3.5-1.6-3.5-3.5v-37c0-7.4,6-13.4,13.4-13.4h20
		c3.1,0,6.1,1.1,8.5,3.1c0.1,0.1,0.2,0,0.2,0.1c-0.3,1.5-0.6,3-0.6,4.5v42c0,1.8,0.7,3.4,1.6,4.8c-0.4-0.2-0.7-0.5-1.1-0.5H40.6z
		 M126.6,175c0,2.4-1.9,4.3-4.3,4.3h-5.5v-43.9c0-1.3-1.1-2.4-2.4-2.4s-2.4,1.1-2.4,2.4v44.4c-0.4-0.2-0.7-0.5-1.2-0.5H89
		c-0.5,0-0.9,0.3-1.3,0.5v-44.4c0-1.3-1.1-2.4-2.4-2.4s-2.4,1.1-2.4,2.4v43.9h-5.5c-2.4,0-4.3-1.9-4.3-4.3v-42
		c0-8.5,6.9-15.5,15.5-15.5h22.6c8.5,0,15.5,6.9,15.5,15.5V175z M173.1,175.7c0,2-1.6,3.5-3.5,3.5H165v-38.5c0-1.3-1.1-2.4-2.4-2.4
		s-2.4,1.1-2.4,2.4v38.8c-0.3-0.1-0.5-0.3-0.8-0.3h-29.4c0.7-1.3,1.3-2.7,1.3-4.3v-42c0-1.5-0.2-2.9-0.5-4.3
		c2.4-2.2,5.6-3.4,8.9-3.4h20c7.4,0,13.4,6,13.4,13.4V175.7z"/>
	<path class="st0" d="M50.2,88.2c-7.5,0-13.6,6.1-13.6,13.6c0,7.3,5.8,18.5,13.6,18.5c7.7,0,13.6-11.2,13.6-18.5
		C63.8,94.2,57.7,88.2,50.2,88.2z M50.2,115.5c-4.3,0-8.8-8.1-8.8-13.7c0-4.9,4-8.8,8.8-8.8c4.9,0,8.8,4,8.8,8.8
		C59.1,107.4,54.5,115.5,50.2,115.5z"/>
	<path class="st0" d="M132.8,87.3c0,1.3,1.1,2.4,2.4,2.4s2.4-1.1,2.4-2.4c0-20.9-17-37.8-37.8-37.8s-37.8,17-37.8,37.8
		c0,1.3,1.1,2.4,2.4,2.4s2.4-1.1,2.4-2.4c0-18.3,14.9-33.1,33.1-33.1S132.8,69.1,132.8,87.3z"/>
	<path class="st0" d="M30.7,98.3c1.3,0,2.4-1.1,2.4-2.4V78.7c0-1.4,1.1-2.5,2.5-2.5h13.2c1.1,0,2-0.7,2.3-1.8
		c1.2-4.4,2.9-8.5,5.1-12.4c0.5-0.9,0.4-2.1-0.4-2.9l-9.3-9.3c-1-1-1-2.5,0-3.5l12.2-12.2c1-1,2.5-1,3.5,0l9.3,9.3
		c0.8,0.8,1.9,0.9,2.9,0.4c3.9-2.2,8-4,12.4-5.1c1-0.3,1.8-1.2,1.8-2.3V23.2c0-1.4,1.1-2.5,2.5-2.5h17.3c1.4,0,2.5,1.1,2.5,2.5v13.2
		c0,1.1,0.7,2,1.8,2.3c4.4,1.2,8.6,2.9,12.4,5.1c0.9,0.5,2.1,0.4,2.9-0.4l9.3-9.3c1-1,2.5-1,3.5,0l12.2,12.2c1,1,1,2.5,0,3.5
		l-9.3,9.3c-0.8,0.8-0.9,1.9-0.4,2.9c2.2,3.9,4,8.1,5.1,12.4c0.3,1,1.2,1.8,2.3,1.8h13.2c1.4,0,2.5,1.1,2.5,2.5V96
		c0,1.3,1.1,2.4,2.4,2.4s2.4-1.1,2.4-2.4V78.7c0-4-3.2-7.2-7.2-7.2h-11.4c-1.1-3.6-2.5-7-4.2-10.2l8.1-8.1c2.8-2.8,2.8-7.4,0-10.2
		L144,30.8c-2.8-2.8-7.4-2.8-10.2,0l-8.1,8.1c-3.2-1.7-6.7-3.2-10.2-4.2V23.2c0-4-3.2-7.2-7.2-7.2H91c-4,0-7.2,3.2-7.2,7.2v11.4
		c-3.6,1.1-7,2.5-10.2,4.2l-8.1-8.1c-2.8-2.8-7.4-2.8-10.2,0L43.1,43c-2.8,2.8-2.8,7.4,0,10.2l8.1,8.1c-1.8,3.2-3.2,6.7-4.2,10.2
		H35.5c-4,0-7.2,3.2-7.2,7.2V96C28.4,97.3,29.4,98.3,30.7,98.3z"/>
</g>
</svg>
