<?xml version="1.0" encoding="utf-8"?>
<!-- Generator: Adobe Illustrator 25.3.1, SVG Export Plug-In . SVG Version: 6.00 Build 0)  -->
<svg version="1.1" id="Layer_1" xmlns="http://www.w3.org/2000/svg" xmlns:xlink="http://www.w3.org/1999/xlink" x="0px" y="0px"
	 viewBox="0 0 200 200" style="enable-background:new 0 0 50 50;" xml:space="preserve">
<style type="text/css">
	.st0{fill:#00AAAA;}
	.st1{fill:#FFFFFF;}
</style>
<circle class="st0" cx="100" cy="100" r="96"/>
<g id="Layer_2_2_">
	<g id="Layer_1-2_1_">
		<path class="st1" d="M95.6,167.3L95.6,167.3L95.6,167.3l-0.2-0.1c-3.6-2.1-9.7-8.3-10-8.6l0,0l0,0c-0.3-0.2-0.6-0.4-0.9-0.6
			c-2-0.8-4.2,0.2-5,2.2c0,0,0,0.1,0,0.1c-0.4,1.1-0.3,2.3,0.2,3.4l0.1,0.2c4.8,6.8,12.6,10.1,12.6,10.1c1.9,0.7,4-0.2,4.7-2
			c0,0,0-0.1,0-0.1C97.6,170.2,97.1,168.3,95.6,167.3z"/>
		<path class="st1" d="M90.6,78.9c-0.6,0.1-1.2,0.2-1.8,0.4c-16.2,5-27,20.3-26.9,39c0.3,11.6,5.2,25.9,8.4,31.8
			c0.1,0.3,0.4,0.8,0.6,1.1c0.1,0.2,0.2,0.4,0.4,0.6c0.7,1.1,1.9,1.7,3.2,1.7c0.7,0,1.3-0.2,1.9-0.5c1.9-1.1,2.6-3.4,1.6-5.3
			c-0.1-0.1-0.2-0.3-0.2-0.4c-5.6-9.7-8.3-20.8-7.9-32c0.4-13.1,9-24.4,21.4-28.5c0.2-0.1,0.4-0.1,0.6-0.2c0.6-0.2,1.1-0.6,1.5-1.1
			c0.6-0.7,1-1.7,1-2.7C94.5,80.8,92.8,79,90.6,78.9z"/>
		<path class="st1" d="M65.3,41.9c23.2-12.9,46.4-11.9,69.6,0c2.6,1.3,5.2,2.2,6.7-1.2c1.3-3-0.6-4.6-3.1-5.9
			c-12.3-6.6-25.3-10-39.2-10c-13.2-0.1-26.2,3.4-37.5,10c-2.5,1.4-4.8,3.1-2.9,6.4C60.5,44,62.9,43.2,65.3,41.9z"/>
		<path class="st1" d="M57.8,149.7c-2.2-0.1-4.1,1.6-4.2,3.9s1.6,4.1,3.9,4.2c2.2,0.1,4.1-1.6,4.2-3.9c0-0.1,0-0.1,0-0.2
			C61.7,151.5,60,149.7,57.8,149.7z"/>
		<path class="st1" d="M108.8,81.8c-0.1-2.2-1.9-3.9-4-3.8s-3.9,1.9-3.8,4c0.1,2.1,1.8,3.8,3.9,3.8C107,85.8,108.8,84,108.8,81.8
			C108.8,81.8,108.8,81.8,108.8,81.8z"/>
		<ellipse class="st1" cx="150.8" cy="144.5" rx="3.9" ry="4"/>
		<path class="st1" d="M121.4,132.2c2.2,0.1,4.1-1.7,4.2-3.9c0.1-2.2-1.7-4.1-3.9-4.2s-4.1,1.7-4.2,3.9c0,0,0,0.1,0,0.1
			C117.4,130.3,119.2,132.1,121.4,132.2z"/>
		<path class="st1" d="M168.5,97.6c-2.2-0.1-4.1,1.6-4.2,3.9c-0.1,2.2,1.6,4.1,3.9,4.2c2.2,0.1,4.1-1.6,4.2-3.9c0-0.1,0-0.1,0-0.2
			C172.4,99.4,170.7,97.6,168.5,97.6z"/>
		<path class="st1" d="M166.6,88.4c-0.1-2.2-1.9-3.9-4-3.8c-2.2,0.1-3.9,1.9-3.8,4c0.1,2.1,1.8,3.8,3.9,3.8
			C164.9,92.4,166.7,90.6,166.6,88.4z"/>
		<path class="st1" d="M49.9,53.4c2.2,0.1,4.1-1.7,4.2-3.9c0.1-2.2-1.7-4.1-3.9-4.2c-2.2-0.1-4.1,1.7-4.2,3.9c0,0,0,0.1,0,0.1
			C46,51.6,47.7,53.4,49.9,53.4z"/>
		<path class="st1" d="M35.4,88.9c-1.4,0-2.7,0.8-3.4,2.1l0,0c0,0,0,0.1,0,0.1c-0.1,0.3-0.3,0.6-0.3,0.9c-2.1,6-3.3,12.3-3.6,18.6
			c0,2.2,1.7,4,3.9,4c1.8,0,3.4-1.3,3.8-3.1l0,0l0,0c0.1-0.3,0.1-0.6,0.1-0.9c0-0.1,0-0.3,0-0.4c0.3-5.3,1.3-10.6,3.1-15.6l0,0
			c0.2-0.5,0.3-1,0.3-1.6C39.4,90.7,37.6,88.9,35.4,88.9z"/>
		<path class="st1" d="M147,113.7c0,10.9-4.2,16.3-11.7,16.2h-0.5c0,0,0,0-0.1,0.1c-2.2,0.3-3.7,2.4-3.4,4.6
			c0.2,1.5,1.3,2.8,2.8,3.2c0.1,0,0.1,0.1,0.2,0.1l0,0h0.1c0.1,0,0.2,0,0.3,0c0.1,0,0.3,0,0.4,0h0.1c0.8,0,1.7,0,1.7,0
			c12.3-1,16.7-11.5,16.7-26.7c0-37.9-39.2-61.4-73.4-47.3c-32.1,13.2-40.4,44.9-31.7,75.9c0.3,1.9,2,3.3,3.9,3.3
			c0.2,0,0.5,0,0.7-0.1c0.5-0.1,0.9-0.3,1.3-0.5c1.2-0.7,1.9-2,1.9-3.5c0-0.3,0-0.5-0.1-0.8c0-0.1,0-0.1-0.1-0.2
			c-0.8-2.9-1.5-5.9-2.1-8.8c-6.3-32.9,14.7-61.1,45.5-61.1C128,68.1,147,86.3,147,113.7z"/>
		<path class="st1" d="M49.7,76.4c9.8-13,19.2-19.8,32.6-23.4l0,0c0.1,0,0.2-0.1,0.3-0.1c0.4-0.1,0.7-0.2,1-0.4
			c1.2-0.7,1.9-2,1.9-3.4c0-0.3,0-0.5-0.1-0.8c0-0.1,0-0.1,0-0.2c-0.4-1.7-1.9-3-3.7-3c-0.2,0-0.5,0-0.7,0.1
			c-0.3,0.1-0.6,0.2-0.9,0.3c-5.9,1.9-11.6,4.6-16.8,8c-7.4,4.5-13.2,9.7-19.4,17.9c-0.9,1.2-2.5,2.7-3.5,4.3
			c-0.5,0.6-0.9,1.4-1,2.2c-0.2,1.2,0.2,2.4,1.1,3.2l0.1,0.1c0.1,0.1,0.3,0.3,0.5,0.4c0,0,0,0,0.1,0l0,0
			C45.2,84.9,47.9,78.9,49.7,76.4z"/>
		<path class="st1" d="M157,71.9c-14.2-19.2-33.3-28.5-56.1-29c-1,0-3.6,0-3.9,0c-2.2,0-4,1.8-4,4s1.8,4,4,4
			c20.1-1.1,40.3,7.5,54,26l0,0c0,0.1,0.1,0.1,0.1,0.2c0.7,1,1.9,1.6,3.1,1.6c2.2,0,3.9-1.8,3.9-4c0-0.7-0.2-1.3-0.5-1.9
			C157.5,72.5,157.2,72.2,157,71.9z"/>
		<path class="st1" d="M134.1,120.2c4-0.1,3.8-3.5,3.7-6.5c-0.1-1.3-0.2-2.5-0.5-3.8c-1.9-10.4-7.6-19.9-15.2-25.7l-0.1-0.1
			c-0.7-0.5-1.5-0.8-2.4-0.8c-2.2,0-4,1.9-4,4.1c0,0.2,0,0.5,0.1,0.7c0,0.3,0.1,0.5,0.2,0.8c0.2,0.5,0.5,0.9,0.8,1.3
			c0.2,0.2,0.5,0.4,0.7,0.6c6.3,5.5,11.6,14.5,12.5,23.6C130.3,117.4,130.5,120.3,134.1,120.2z"/>
		<path class="st1" d="M104,95.4"/>
		<path class="st1" d="M119.7,161.5c-2.2-0.7-4.4-1.5-6.5-2.5c-16.5-8.4-25.4-22.1-26.3-41.1c-0.4-8.5,4.9-14.4,12.4-14.7l0.1,0
			c0.5-0.1,0.9-0.2,1.3-0.5c1.9-1.1,2.6-3.6,1.5-5.5c-0.4-0.6-0.9-1.1-1.5-1.5c-0.5-0.3-1.1-0.5-1.7-0.5c0,0-0.1,0-0.1,0
			c-0.1,0-0.2,0-0.3,0c-10,0.6-18,8.2-19.3,18.4c-2.9,23.1,16,50.7,38,55.3c2.5,0.5,4.8,0.4,5.5-2.6
			C123.5,163.8,122,162.3,119.7,161.5z"/>
		<path class="st1" d="M109.2,106.3c0,0.1,0.1,0.3,0.2,0.4c0.9,2.3,1.7,4.6,2.4,7c0.1,0.4,0.2,0.7,0.3,1.1c0.6,1.5,2.1,2.5,3.7,2.5
			c0.7,0,1.4-0.2,2-0.5c1.3-0.8,2.2-2.2,2.1-3.7c0-0.2,0-0.3,0-0.5c0-0.3-0.1-0.6-0.2-0.9c-0.7-2.9-1.9-6.4-3.5-8.7
			c-0.1-0.2-0.3-0.4-0.4-0.6l-0.1-0.1l0,0c-0.7-0.8-1.7-1.2-2.8-1.2c-2.2,0.1-3.9,1.9-3.9,4c0,0.4,0.1,0.8,0.2,1.2l0,0L109.2,106.3z
			"/>
		<path class="st1" d="M138.3,146.9c-0.5-0.3-1.1-0.5-1.8-0.5l0,0l-0.6,0.1c-16.8,1.5-30.4-10.1-31.9-27.4c-0.3-3-0.2-6.5-4.2-6.2
			c-3.7,0.3-3.7,4.1-3.5,7.1c1.1,19.4,17,34.6,36.4,34.8c1.3,0,2.5-0.1,3.8-0.3c0.3,0,0.5-0.1,0.7-0.1c0.3-0.1,0.7-0.2,1-0.4
			c2-1.1,2.6-3.6,1.5-5.6C139.4,147.8,138.9,147.3,138.3,146.9L138.3,146.9z"/>
	</g>
</g>
</svg>
