<?xml version="1.0" encoding="utf-8"?>
<!-- Generator: Adobe Illustrator 25.3.1, SVG Export Plug-In . SVG Version: 6.00 Build 0)  -->
<svg version="1.1" id="Layer_1" xmlns="http://www.w3.org/2000/svg" xmlns:xlink="http://www.w3.org/1999/xlink" x="0px" y="0px"
	 viewBox="0 0 200 200" style="enable-background:new 0 0 200 200;" xml:space="preserve">
<style type="text/css">
	.st0{fill:#00AAAA;}
	.st1{fill:none;stroke:#00AAAA;stroke-width:6;stroke-miterlimit:10;}
</style>
<g>
	<path class="st0" d="M151.4,48.9c-11.1-11.1-29.2-11.1-40.3,0L88,72c-11.1,11.1-11.1,29.2,0,40.3c2.7,2.7,5.9,4.8,9.4,6.3
		c0.4,0.2,0.8,0.2,1.3,0.2c1.3,0,2.6-0.8,3.1-2.1c0.7-1.7-0.1-3.7-1.8-4.4c-2.7-1.1-5.1-2.7-7.2-4.8c-4.1-4.1-6.4-9.6-6.4-15.4
		s2.3-11.3,6.4-15.4l23.1-23.1c8.5-8.5,22.3-8.5,30.8,0c4.1,4.1,6.4,9.6,6.4,15.4s-2.3,11.3-6.4,15.4l-17.9,17.9
		c-1.3,1.3-1.3,3.4,0,4.7c1.3,1.3,3.4,1.3,4.7,0l17.9-17.9c5.4-5.4,8.3-12.5,8.3-20.1S156.8,54.2,151.4,48.9z"/>
	<path class="st0" d="M102.3,81.6c-1.7-0.7-3.7,0.2-4.3,1.9c-0.7,1.7,0.2,3.7,1.9,4.3c2.9,1.1,5.4,2.8,7.6,4.9
		c8.5,8.5,8.5,22.3,0,30.8l-23.1,23.1c-8.5,8.5-22.3,8.5-30.8,0c-8.5-8.5-8.5-22.3,0-30.8l18.1-18.1c1.3-1.3,1.3-3.4,0-4.7
		c-1.3-1.3-3.4-1.3-4.7,0l-18.1,18.1c-11.1,11.1-11.1,29.2,0,40.3c5.5,5.6,12.8,8.3,20.1,8.3c7.3,0,14.6-2.8,20.1-8.3l23.1-23.1
		c11.1-11.1,11.1-29.2,0-40.3C109.3,85.2,106,83,102.3,81.6z"/>
</g>
<circle class="st1" cx="100" cy="100" r="96"/>
</svg>
